<?xml version="1.0" encoding="utf-8"?>
<!-- Generator: Adobe Illustrator 21.0.0, SVG Export Plug-In . SVG Version: 6.00 Build 0)  -->
<svg version="1.1" id="Layer_1" xmlns="http://www.w3.org/2000/svg" xmlns:xlink="http://www.w3.org/1999/xlink" x="0px" y="0px"
	 viewBox="0 0 243 82" style="enable-background:new 0 0 243 82;" xml:space="preserve">
<style type="text/css">
	.st0{fill-rule:evenodd;clip-rule:evenodd;}
</style>
<path class="st0" d="M40.7,2.3c9.5,0.2,17.9,3.5,24.4,8.8c1-0.4,2-0.8,3-1.1c0.7-0.1,1.4-0.2,2,0c0.9,0.3,1.5,0.7,1.8,1.3
	c0,0.5,0,1.1,0,1.6c-0.4,0.2-0.9,0.6-1.3,0.9c-0.3,0.2-0.4,0.4-0.5,0.4c-0.2,0-0.3,0-0.3,0.3c0,0.3,0.2,0.3,0.3,0.3
	c0.2,0,0.5-0.3,0.9-0.6c0.4-0.4,0.9-0.8,1.2-0.9c0.1,0,0.3-0.1,0.2-0.3c0.4,0,0.8,0,1.2,0.1c0.8,0.3,1.1,0.8,1.3,1.2
	c0,0.5,0.1,1,0.1,1.5l-2.5,1.7c-0.1,0.1-0.3,0.2-0.1,0.5c0.2,0.3,0.3,0.2,0.5,0.1l2.6-1.8c0.2,0.1,0.4,0.3,0.5,0.6
	c0.6,1.1,0.5,2.1,0.3,3.1c0.4,0.2,0.7,0.4,1.1,0.6c1,1.3-0.7,3-1.7,3.6c-0.1,0.1-0.3,0.2-0.4,0.3c2.7,5.9,4,12.7,3.4,19.9
	c-2.5,19.9-18,33.8-38.1,34.3c-20.1-0.5-35.5-14.4-38-34.3c-0.6-7.2,0.7-14,3.4-19.9c-0.1-0.1-0.3-0.2-0.4-0.3
	c-1-0.6-2.7-2.3-1.7-3.6c0.4-0.2,0.7-0.4,1.1-0.6c-0.2-1-0.3-2,0.3-3.1c0.1-0.3,0.3-0.5,0.5-0.6l2.6,1.8c0.1,0.1,0.3,0.2,0.5-0.1
	c0.2-0.3,0.1-0.4-0.1-0.5l-2.5-1.7c0-0.5,0.1-1,0.1-1.5c0.1-0.4,0.4-0.9,1.3-1.2c0.4,0,0.8,0,1.2-0.1c-0.1,0.2,0.1,0.3,0.2,0.3
	c0.3,0.1,0.8,0.5,1.2,0.9c0.4,0.3,0.7,0.6,0.9,0.6c0.2,0,0.3,0,0.3-0.3c0-0.3-0.2-0.3-0.3-0.3c0,0-0.2-0.2-0.5-0.4
	c-0.4-0.3-0.9-0.8-1.3-0.9c0-0.5,0-1.1,0-1.6c0.3-0.6,0.9-1,1.8-1.3c0.6-0.2,1.3-0.2,2,0c1,0.4,2,0.8,3,1.1
	C22.8,5.8,31.2,2.6,40.7,2.3z M48.2,67.6c0.3-0.4,1.2-0.4,1.6-0.6c-0.2-0.2-0.8-0.8-1.2-0.8C48.3,66.5,48.1,67.2,48.2,67.6z
	 M29,23.5c-2.1-1.6-4.2,0.8-6.5,0.1c-0.6,0.8-1.5,1.5-2,2.4c2.2-0.1,2.7,3.2,2.6,4.8c-0.2,1.9-0.9,4-2.1,5.5
	c0.2,1.7,0.9,2.7,2.4,3.6c2,0.6,3.8,1.3,5.6,2.5c1.8-1.2,3.7-2,5.7-2.6c1.6-0.9,2.2-1.8,2.4-3.5c-1.2-1.5-1.9-3.5-2.1-5.4
	c-0.1-1.2,0.2-3.9,1.5-4.5l0,0c0.3-0.2,0.7-0.3,1.1-0.3c-0.6-0.9-1.4-1.5-2-2.4C33.1,24.3,31.2,21.9,29,23.5z M24.4,35.4
	c0.8,0.3,1.7-0.5,2.2-1.1c0-0.4,0-0.6,0.1-1c1-0.1,1.1-1.6,1.1-2.5c0-0.8-0.3-2.1-1.3-2.1c-0.8,0-3.1,2.3-1.4-0.8
	c1.5-0.9,2.7-0.8,3.4,0.9c0.7-0.9,1.9-1.7,2.8-2.2c-0.5,2.2-0.3,4.5,0.2,6.6c0.4,0,0.8,0,1.2,0.1c0.1,0.3,0.2,0.6,0.2,1
	c-0.5-0.2-0.9-0.2-1.2-0.3c0.8,3.1,1.5,0.9,1.9,2c-0.9,0.4-1.6,0.8-2.2,1.3c-0.6-0.8-1-1.9-1.2-3.3h-2.7c-1.1,1.3-3.2,2-1.1,2.4
	c-0.2,0.4-0.6,0.7-1,0.9C23.2,36.4,23.9,36.7,24.4,35.4z M30.2,33.3c-0.3-1.6-0.3-3-0.1-4.6c-0.3,0.2-0.9,0.5-1.3,1
	c0.3,1.3,0.1,2.4-0.5,3.6H30.2z M50.6,67.9c0.3-0.2,1.1,0.1,1.4-0.1c0-0.4-0.7-1-1-1.2C50.8,66.7,50.5,67.6,50.6,67.9z M46,66.9
	c0.2-0.1,0.8-0.1,0.9-0.3c0-0.2-0.2-0.6-0.3-0.8C46.4,66,46.1,66.5,46,66.9z M35.5,61.7c0.2-0.2,0.8-0.3,1.1-0.4
	c-0.1-0.2-0.4-0.7-0.7-0.7C35.6,60.8,35.3,61.5,35.5,61.7z M33.5,60.7c0.2-0.3,1.4-0.3,1.8-0.4c-0.2-0.1-1.1-0.5-1.4-0.5
	C33.6,60,33.5,60.5,33.5,60.7z M31.2,59.5c0.2-0.4,1.1-0.5,1.5-0.8c-0.1-0.3,0.1-0.7,0.2-0.9c-0.5,0.3-1.3,0.6-1.5,0.8
	C31.2,58.9,31.1,59.2,31.2,59.5z M30,47.8c0.2-0.2,1-0.3,1.2-0.4c-0.1-0.4-0.7-0.7-1-0.7C30,47,29.9,47.4,30,47.8z M28.6,46.4
	c0.2,0,0.8-0.1,0.9-0.2c0.1-0.3,0-0.7-0.1-0.9C28.9,45.5,28.6,45.8,28.6,46.4z M27.8,45.1c0.1-0.2,0.9-0.1,1-0.4
	c-0.1-0.2-0.5-0.9-0.6-0.9C28.1,44,27.8,44.7,27.8,45.1z M40.1,31.6c0.1,0,1.1,0,1.1-0.1c0-0.1-0.8-0.6-0.8-0.7
	C40.4,30.8,40.2,31.4,40.1,31.6z M39.9,29.6c0.1,0.1,0.6-0.7,0.8-0.9c-0.4,0-0.9,0-1.3,0.1C39.5,29,39.8,29.6,39.9,29.6z M52.2,67.9
	c0.5,0.1,1,0,1.4-0.4c0.2-0.4-0.4-0.4-0.2-0.7c0.5-0.2,1.3-0.2,1.3-1.2c-0.2-0.1-0.4-0.2-0.4-0.4c1.2-1.2,1.2-0.8,0.8-2.2
	c0.7-0.4,1.3-1.2,1.4-2.2c-0.1-0.6-0.9-0.1-1.1-0.4c0.4-0.4,1.3-2.3,0.9-2.8c-1-0.2-2.4-1.1-1.8-2.3c5.2,1.2,4.9-8,2.5-11
	c-1.9-2.4-3.9-5.7-2.3-9.2c0.7-1.3,1.6-2.3,3-2.7c1-0.1,1.9,0.3,2.5,0.9c0.4,1.7,0.3,3.8,2,4.6c0.4,0.1,0.8,0.3,1.1,0.1
	c-0.3-0.3-0.7-0.5-0.7-1c0.5,0.3,1.4,1.3,2.4,1.2c0.7,0,1.5-0.5,1.7-1c-0.9-0.2-1.7-0.6-1.9-1.9c-0.2-1.5,0-4.1-1.8-4.8
	c0.2,0.9,0.6,1.9,0.3,2.9c-0.8-1.6-0.1-4.4-2.9-4.5c-1.2,0-1.9,0.8-2.4,1.6c0.9,0,2.2,0,2.7,0.7c-1.8-0.6-3.8-0.4-5,1.1
	c-1.1,1.5-1.9,3.5-2.3,5.3c-0.3,1.6,0.4,3.1,0.9,4.3c1.8,3,4.6,6.3,2.5,10.7c-0.6,1.3-2.5,1-3.4-0.3c-0.6-5.1-4.9-3.2-5.7-7.5
	c-0.8-0.8-2.4-0.3-2.7-1.6c-0.2,0.1-2.5,1.8-2.6,1.2c0-0.3-2.4,0.2-2.9,0.7c-0.4,0.3-1,0.4-1.5,0.4c0,0.2-0.2,0.4-0.3,0.5
	c2.2,1.4,5.2,1.1,7.2,2.3c1.7,1,2.5,2.1,2.7,3.3c0.1,1.6-2.6,9.1,1.6,8.4c1-0.3,1.8-0.8,2.2-1.7c0.1-0.2,0.1-0.4,0.3-0.4
	c0.1-0.1,0.3,0.1,0.2,0.1c-0.9,1.6,0.7,4.5-1.1,6.1c-1,0.4-2.9,1.1-4,1.7c0.1,0.3,0.2,0.6,0.3,0.9c0.5-0.4,1-0.5,1.5-0.8
	c0.8-0.2,0.4-0.4,1.2-0.5c-0.4,0.6-0.3,0.5-0.9,0.8c0.5,0.1,0.7,0.7,1.2,0.8c0.6-0.6,0.7-0.8,1.4-1.2c0.1,0.5-0.3,0.5-0.5,0.8
	c0.5,0.1,1,0.3,1.1,0.8C52.1,67.5,52.3,67.7,52.2,67.9z M42.9,27c0.8,0.3,1.5,0,2.1-0.5c0.2-0.1,0.8-0.3,0.8-0.6
	c-0.3-0.3-0.3,0.4-0.9,0.3c-0.7-0.2-1.4-0.4-2.2-0.2l-0.3,0.2C42.6,26.5,42.6,26.9,42.9,27z M43.3,26.8c0.3,0,0.7-0.1,0.9-0.2
	C44.5,26,42.3,26.3,43.3,26.8z M50.2,36.6c-1.7-0.7-1.2-2.9-2.8-3.5c-0.2-0.1-0.9-0.2-0.5,0.2c1.8,0.6,1.4,2.9,2.9,3.6
	C49.8,36.8,50.5,36.8,50.2,36.6z M46.9,40c-0.5-1-0.9-2.7-0.8-4.1c0-0.2-0.2-0.3-0.4-0.3c-0.1,0.7,0,1.5,0.1,2.1
	C45.9,38.3,46.3,40.3,46.9,40z M36.8,61.3c1.5,0.3,2.9-0.3,4.2-0.8c-0.1-0.3-0.7-0.1-0.8-0.4c0.4-0.1,2.5-0.1,2.4-0.9
	c-0.2,0-0.6,0-0.7-0.2c0.9-0.2,1.8-0.4,2.1-1.4c-0.4-0.2-1.1,0-1.4-0.5c0.7-0.1,1.7-0.1,2.4-0.6c-0.1-0.7-2.1-1.2-0.8-2.4
	c1-0.8,1.8-0.1,2.7-0.8c0.1-0.6,0.6-1.4,0.2-1.7c-0.5-0.4-1.2,0-1.5-0.1c0.1-0.5,1-0.7,1.4-0.4c-0.6-0.7-1.6-0.2-2.3-0.2
	c0.5-0.9,1.3-0.3,1.9-0.5c-0.8-0.4-1.9-0.4-2.8-0.2c0-0.6,1.8-0.4,2.4-0.4c-0.9-1.2-2.5-0.2-3.1,0c0-0.9,1.8-0.9,2.3-0.9
	c-0.5-0.6-1.5-0.8-2.5-0.8c-1.6,0.4-6.8,2-4.4,4.6c0.6,0.8,2.9,1.5,1.5,3c-2.5,2.8-6.4,0.8-7,2.2c-0.2,0.4-0.2,0.7,0,0.9
	c0.4,0.1,0.5,0.5,0.8,0.3c0.6-0.5,0.4-0.4,1.2-0.5c0.1,0,0.1,0.3-0.1,0.3c-0.7,0.2-0.7,0.1-1.1,0.6c0.7,0.5,1.6,0.3,2.2,0.9
	C36.4,60.7,36.6,61,36.8,61.3z M42.9,42.4c0.2,0,0.3,0,0.3,0c0,0.5-0.2,1-0.3,1.4c0.5-0.3,1.4-0.5,1.6-1.2c0-0.3-0.3-0.5-0.2-0.7
	c0.2-0.1,0.4,0,0.4,0.1c0.3,0.9,0.8,1.7,1.8,1.6c-0.3-0.5-0.2-1.1-0.4-1.8c0.1-0.1,0.2-0.1,0.2-0.1c0.7,0.6-0.1,1.7,1.6,2.4
	c0.9,0.1,2,0.4,2.7-0.2c-0.7-0.4-1.7-0.5-2.2-1.1c0.2,0,0-0.2,0.2-0.3c0.3,0.3,0.8,0.5,1.4,0.5c0.4-0.2,0.8-0.4,1.1-0.8
	c-0.3,0.1-0.9,0.2-1.2-0.2c-0.3-0.4-0.5-1.2-0.2-1.5c1.1-1.1,2.2-2.4,2-4.3c0-0.5-0.6-0.6-0.7-0.8c0-0.4,0.9,0.1,1.1,0.1
	c-1.4-1.8,0.4-4.7-1.1-6.5c-0.4-0.1-0.9-0.1-1.2-0.3c-0.4-0.9,1.9-0.9-0.8-2.5c-0.5,0-0.8-0.2-1.3-0.3c0-0.1-0.1-0.2-0.1-0.2
	c0.2-0.3,0.6,0,0.9,0c0.2-0.6-0.2-1.2-0.6-1.7c-0.4-0.4-0.3,0.5-0.7,0.5c-0.2-0.2-0.2-0.6-0.4-0.9c-0.1,0.3-0.2,0.7-0.6,0.7
	c-0.2-0.4-0.1-1.4-0.3-1.8c-0.4,0.2-0.8,0.9-1.7,1.4c-0.8,0.5-2.1,0.8-2.3,0.9c-3.5,0.5-3.1,1.6-3,1.9c0.6,0.5,0,1.2,0.2,1.5
	c1-0.2,2.7-0.3,3.3,0.7c0.4,0.6,0.3,1.4,0,2c-0.7,0.7-1.8,0.1-2.6,0.5c0.2,0.6-0.2,1.4-0.7,1.8c0.5,0.1,0.7-0.5,1.1-0.6
	c0.2,0.2,0.2,0.5,0.6,0.4c0.5,0.1,0.4-0.5,0.6-0.5c0.3,0.1,0.2,0.5,0.5,0.4c0.3,0,0.6-0.2,0.6-0.5c0-0.2-0.2-0.3,0-0.4
	c0.3-0.1,0.8,0.3,0.9-0.1c0.3-0.2,0-0.5,0.2-0.6c0.3,0,0.6,0.2,0.7,0c0.3-0.7,0.1-1.4,0-1.9c0-0.9,0.4,0,0.4,0.4
	c0,0.7,0.1,1.3-0.2,1.8c-0.2,0.3-0.5,0-0.7,0.3c-0.1,0.3-0.7,0.4-0.5,0.7c0.1,0.6,0.3,1.6-0.3,1.8c-0.9,0.5-1.9-0.2-2.1-0.1
	c-0.1,0.4,0.2,0.8-0.1,1.1C40.8,35.6,41,35,40.5,35c-1.5-0.2-1.1,1.4-2.7,1.4c-0.1,0.8-0.2,1.6-0.7,2.3c0.8-0.2,1.7-0.2,2.5,0
	c0.5-0.1,1-0.5,1.5-0.5c0.2,0.3-0.2,0.3-0.3,0.5c-0.4,0.2-0.9,0.2-1.2,0.4c-0.1,0.6,0.3,1.1,0.8,1.4c0.8,0.4,1.4,0.7,1.4,1.5
	c-0.1,1.3-0.5,1.8-1.5,2.3C42.5,43.9,41.8,43,42.9,42.4z M31.5,47.3c0.8,0.2,1.7-0.2,2.1-0.8c0.3-0.4,0.2-1.1,0.5-1.2
	c0.3,0.3,0,0.9,0.5,1.1c0.7-0.1,1.3-0.5,1.5-1.2c0.1-0.2,0-0.4,0.2-0.3c0.7-0.1,0.9-0.2,2.3-0.5c0.1-0.1,0.9-0.2,0.8-0.2
	c-0.1-0.1-0.5-0.2-0.5-0.4c0.7,0,1.5-0.1,1.9-0.6c0.3-0.4,0.7-1.7,0.1-2.1c-0.8-0.6-1.6-0.8-1.7-1.8c0-0.2,0.1-0.3-0.1-0.4
	c-0.7-0.2-1.5-0.2-2.3,0c-0.6,0.8-1.3,1.3-2.3,1.5c-1,1.3-2,2.4-3.9,2.3c-0.6,0-1.1,0-1.7,0.1c-0.3,0.1-0.5,0.3-0.5,0.5
	c0.1,0.5,0.7,0.8,0.6,1.2c0.8,0,1.6-0.7,2.4-0.6c-0.4,0.6-1.4,0.5-2,0.9c0.3,0.2,0.5,0.7,0.3,1.1c0.8-0.3,1.5-0.7,2.2-1.1
	c0.2,0,0.2,0.2,0.1,0.3c-0.6,0.5-1.2,0.8-1.9,1C30.7,46.6,31.3,46.6,31.5,47.3z M58.5,46.8c1.5,0.2,1.3-1.5,1.3-2.5
	c-0.4,0.6-1.3,0.7-1.8,1.2C58.4,46,58.4,46.4,58.5,46.8z M59,49.5c1.1-0.2,1.3-1.7,0.9-2.5c-0.4,0.3-0.8,0.4-1.3,0.3
	C58.8,47.7,59,49,59,49.5z M59.8,53.4c-0.1-0.9,0.6-3.4-0.8-3.5c-0.1,0.9-0.1,2.5-0.4,3.3C58.9,53.2,59.7,53.4,59.8,53.4z M57.8,45
	c0.5-0.7,0.3-1.8,0.2-2.6c-0.4,0.3-0.7,0.8-1.4,0.8C56.8,43.5,57.5,44.2,57.8,45z M13.4,10.6l3.2,3l0,0c0.1,0.1,0.2,0.3,0.4,0.5
	c0.5,0.6,1.4,1.5,1.6,1.5c0.1,0,0.3,0,0.3,0.3c0,0.3-0.1,0.3-0.3,0.3c-0.5,0-1.4-1-2-1.7c-0.2-0.2-0.3-0.3-0.4-0.4l0,0l0,0l0,0
	L13,11c-0.1-0.1-0.2-0.2,0-0.4C13.2,10.4,13.3,10.5,13.4,10.6z M16.4,18.7L16.4,18.7c0,0,0.1,0.1,0.1,0.1h0c0.1,0.1,0.7,0.7,0.8,0.8
	c0.1,0.1,0.2,0.2,0,0.5c-0.3,0.3-1.1-0.6-1.4-0.9l0,0l-2.9-2.5c-0.1-0.1-0.2-0.2,0-0.5C13.5,15.7,15.9,18.3,16.4,18.7z M12.2,20.2
	c0.5,0.2,1,0.6,1.5,1c0.6,0.5,1.3,1,1.6,1c0.2,0,0.3,0,0.3,0.3c0,0.3-0.2,0.3-0.3,0.3c-0.6,0-1.3-0.6-2-1.1c-0.5-0.4-1-0.8-1.4-0.9
	c-0.2-0.1-0.3-0.1-0.2-0.4C11.9,20.1,12,20.1,12.2,20.2z M6.7,20.8c0.5,0.5,1.3,0.9,2.1,1.2c0.9,0.5,1.8,0.9,2.4,1.5l1.1,1
	c0.1,0.1,0.2,0.2,0,0.5c-0.2,0.2-0.3,0.1-0.5,0l-1.1-1l0,0c-0.5-0.5-1.3-0.9-2.2-1.4c-0.8-0.4-1.6-0.8-2.2-1.3
	c-0.1-0.1-0.2-0.2,0-0.5C6.5,20.6,6.6,20.7,6.7,20.8z M67.9,10.6l-3.2,3l0,0c-0.1,0.1-0.2,0.3-0.4,0.5c-0.5,0.6-1.4,1.5-1.6,1.5
	c-0.1,0-0.3,0-0.3,0.3c0,0.3,0.1,0.3,0.3,0.3c0.5,0,1.4-1,2-1.7c0.2-0.2,0.3-0.3,0.4-0.4l0,0l0,0c0,0,0,0,0,0l3.2-3
	c0.1-0.1,0.2-0.2,0-0.4C68.1,10.4,68,10.5,67.9,10.6z M65,18.7L65,18.7c0,0-0.1,0.1-0.1,0.1h0c-0.1,0.1-0.7,0.7-0.8,0.8
	c-0.1,0.1-0.2,0.2,0,0.5c0.3,0.3,1.1-0.6,1.4-0.9l0,0l2.9-2.5c0.1-0.1,0.2-0.2,0-0.5C67.8,15.7,65.4,18.3,65,18.7z M69.1,20.2
	c-0.5,0.2-1,0.6-1.5,1c-0.6,0.5-1.3,1-1.6,1c-0.2,0-0.3,0-0.3,0.3c0,0.3,0.2,0.3,0.3,0.3c0.6,0,1.3-0.6,2-1.1c0.5-0.4,1-0.8,1.4-0.9
	c0.2-0.1,0.3-0.1,0.2-0.4S69.3,20.1,69.1,20.2z M74.6,20.8c-0.5,0.5-1.3,0.9-2.1,1.2c-0.9,0.5-1.8,0.9-2.4,1.5l-1.1,1
	c-0.1,0.1-0.2,0.2,0,0.5c0.2,0.2,0.3,0.1,0.5,0l1.1-1l0,0c0.5-0.5,1.3-0.9,2.2-1.4c0.8-0.4,1.6-0.8,2.2-1.3c0.1-0.1,0.2-0.2,0-0.5
	C74.8,20.6,74.7,20.7,74.6,20.8z M10.3,27.3c0.3,0.2,0.7,0.4,1,0.6c0.6,0.5,1.4,0.6,2.3,0.2c0.5-0.6,0.5-1.2,0.1-1.9
	c0.6,0,1.2,0,1.8,0c0.3,0,0.5-0.1,0.7-0.5c0.2-0.9,0.2-1.8,0-2.7c0.6,0,1.2,0,1.8,0c0.6,0.1,0.5-0.3,0.6-0.5
	c0.2-0.6,0.2-1.2,0.1-1.9c0.6,0.2,1.2,0.4,1.7-0.1c0.3-1.2,0.3-2.4,0.2-3.8c0-0.6,0.2-0.6,0.6,0.1c0,1.4,0.1,1.1,0.4,2.4
	c0.1,0.4-0.1,1.4,1.7,1.3c0.7-0.2,1-0.9,1.3-1.7c0-1.8-0.4-1.9-0.4-3.8c-0.5-1.8-1.1-1.4-1.2-2.7c5-3.1,11-4.9,17.5-5.1
	c6.6,0.2,12.5,2,17.5,5.1c-0.1,1.3-0.7,0.9-1.2,2.7c0,1.8-0.4,1.9-0.4,3.8c0.3,0.7,0.5,1.5,1.3,1.7c1.8,0.1,1.6-0.9,1.7-1.3
	c0.3-1.3,0.4-1,0.4-2.4c0.4-0.6,0.6-0.7,0.6-0.1c-0.2,1.3-0.1,2.6,0.2,3.8c0.5,0.4,1.1,0.3,1.7,0.1c-0.1,0.7-0.1,1.3,0.1,1.9
	c0.1,0.3,0,0.6,0.6,0.5c0.6,0,1.2,0,1.8,0c-0.1,0.9-0.2,1.8,0,2.7c0.2,0.4,0.4,0.5,0.7,0.5c0.6,0,1.2,0,1.8,0
	c-0.4,0.7-0.4,1.3,0.1,1.9c0.9,0.4,1.7,0.3,2.3-0.2c0.3-0.2,0.7-0.4,1-0.6c2.1,5,3.1,10.6,2.7,16.7c-2.2,17.2-15.6,29.4-33,29.8
	C23.2,73.3,9.9,61.3,7.7,44C7.2,37.9,8.2,32.3,10.3,27.3z"/>
<g>
	<path d="M99.6,34.4h-6.2l-0.7,1.7c-0.2,0.6-0.4,1-0.4,1.4c0,0.5,0.2,0.9,0.6,1.1c0.2,0.1,0.8,0.2,1.7,0.3v0.5h-5.8v-0.5
		c0.6-0.1,1.1-0.4,1.5-0.8c0.4-0.4,0.9-1.3,1.5-2.6l6.3-14h0.2l6.3,14.4c0.6,1.4,1.1,2.2,1.5,2.6c0.3,0.3,0.7,0.4,1.2,0.5v0.5h-8.5
		v-0.5h0.3c0.7,0,1.2-0.1,1.4-0.3c0.2-0.1,0.3-0.3,0.3-0.6c0-0.2,0-0.3-0.1-0.5c0-0.1-0.1-0.4-0.4-1L99.6,34.4z M99.2,33.4l-2.6-6
		l-2.7,6H99.2z"/>
	<path d="M109.1,21.9h9v0.5h-0.5c-0.7,0-1.1,0.1-1.4,0.2s-0.4,0.3-0.5,0.6c-0.1,0.2-0.2,0.9-0.2,1.9v8.6c0,1.6,0.1,2.6,0.4,3.1
		c0.2,0.5,0.6,0.9,1.2,1.3c0.5,0.3,1.2,0.5,2.1,0.5c0.9,0,1.8-0.2,2.4-0.6s1.2-1,1.5-1.8c0.3-0.7,0.5-2.1,0.5-3.9V25
		c0-0.8-0.1-1.3-0.2-1.7c-0.2-0.3-0.4-0.6-0.6-0.7c-0.4-0.2-0.9-0.3-1.6-0.3v-0.5h6.1v0.5h-0.4c-0.5,0-0.9,0.1-1.2,0.3
		s-0.6,0.5-0.7,0.9c-0.1,0.3-0.2,0.8-0.2,1.5v6.6c0,2.1-0.1,3.5-0.4,4.5s-0.9,1.8-2,2.5c-1,0.8-2.5,1.1-4.3,1.1
		c-1.5,0-2.7-0.2-3.5-0.6c-1.1-0.6-1.9-1.3-2.4-2.1c-0.5-0.9-0.7-2-0.7-3.5V25c0-1-0.1-1.6-0.2-1.9c-0.1-0.2-0.3-0.4-0.6-0.6
		s-0.8-0.2-1.5-0.2V21.9z"/>
	<path d="M145.1,21.9v4.7h-0.5c-0.3-1.1-0.6-1.9-0.9-2.4s-0.8-0.9-1.4-1.1c-0.3-0.2-0.9-0.2-1.7-0.2h-1.3v13.5c0,0.9,0,1.5,0.1,1.7
		s0.3,0.4,0.6,0.6c0.3,0.2,0.7,0.3,1.2,0.3h0.6v0.5h-9.2v-0.5h0.6c0.5,0,0.9-0.1,1.2-0.3c0.2-0.1,0.4-0.3,0.5-0.6
		c0.1-0.2,0.1-0.7,0.1-1.6V22.9h-1.3c-1.2,0-2,0.2-2.6,0.7c-0.7,0.7-1.2,1.7-1.4,3h-0.5v-4.7H145.1z"/>
	<path d="M156.5,21.6c2.8-0.1,5.1,0.7,6.8,2.4c1.7,1.7,2.6,3.9,2.6,6.5c0,2.2-0.6,4.2-1.9,5.9c-1.7,2.2-4.2,3.4-7.3,3.4
		c-3.1,0-5.6-1.1-7.3-3.2c-1.4-1.7-2-3.7-2-6c0-2.6,0.9-4.8,2.7-6.5C151.8,22.3,154,21.5,156.5,21.6z M156.7,22.5
		c-1.6,0-2.8,0.8-3.7,2.5c-0.7,1.3-1,3.3-1,5.8c0,3,0.5,5.2,1.6,6.6c0.7,1,1.8,1.5,3.1,1.5c0.9,0,1.6-0.2,2.2-0.6
		c0.8-0.6,1.3-1.4,1.8-2.6c0.4-1.2,0.6-2.8,0.6-4.7c0-2.3-0.2-4-0.6-5.2c-0.4-1.1-1-2-1.6-2.4C158.3,22.7,157.6,22.5,156.7,22.5z"/>
	<path d="M180.1,21.5l0.1,5.8h-0.5c-0.2-1.5-0.9-2.6-1.8-3.5c-1-0.9-2-1.3-3.2-1.3c-0.9,0-1.6,0.2-2.1,0.7c-0.5,0.5-0.8,1-0.8,1.6
		c0,0.4,0.1,0.7,0.3,1c0.2,0.4,0.6,0.8,1.2,1.2c0.4,0.3,1.3,0.8,2.8,1.5c2,1,3.4,2,4.1,2.9c0.7,0.9,1.1,1.9,1.1,3.1
		c0,1.5-0.6,2.7-1.7,3.8s-2.6,1.6-4.3,1.6c-0.6,0-1.1-0.1-1.6-0.2c-0.5-0.1-1.1-0.3-1.8-0.6c-0.4-0.2-0.8-0.3-1-0.3
		c-0.2,0-0.5,0.1-0.7,0.3c-0.2,0.2-0.5,0.4-0.6,0.8H169v-6.6h0.5c0.4,1.9,1.1,3.3,2.2,4.3c1.1,1,2.2,1.5,3.5,1.5
		c1,0,1.7-0.3,2.3-0.8s0.9-1.1,0.9-1.8c0-0.4-0.1-0.8-0.3-1.2c-0.2-0.4-0.6-0.8-1-1.1c-0.4-0.3-1.2-0.8-2.4-1.4
		c-1.6-0.8-2.7-1.4-3.4-2c-0.7-0.6-1.2-1.2-1.6-1.8c-0.4-0.7-0.6-1.4-0.6-2.2c0-1.4,0.5-2.6,1.5-3.6s2.3-1.5,3.9-1.5
		c0.6,0,1.1,0.1,1.7,0.2c0.4,0.1,0.9,0.3,1.5,0.6c0.6,0.3,1,0.4,1.2,0.4c0.2,0,0.4-0.1,0.5-0.2c0.1-0.1,0.2-0.5,0.4-1H180.1z"/>
	<path d="M193.4,21.6c2.8-0.1,5.1,0.7,6.8,2.4c1.7,1.7,2.6,3.9,2.6,6.5c0,2.2-0.6,4.2-1.9,5.9c-1.7,2.2-4.2,3.4-7.3,3.4
		c-3.1,0-5.6-1.1-7.3-3.2c-1.4-1.7-2-3.7-2-6c0-2.6,0.9-4.8,2.7-6.5C188.6,22.3,190.8,21.5,193.4,21.6z M193.5,22.5
		c-1.6,0-2.8,0.8-3.7,2.5c-0.7,1.3-1,3.3-1,5.8c0,3,0.5,5.2,1.6,6.6c0.7,1,1.8,1.5,3.1,1.5c0.9,0,1.6-0.2,2.2-0.6
		c0.8-0.6,1.3-1.4,1.8-2.6c0.4-1.2,0.6-2.8,0.6-4.7c0-2.3-0.2-4-0.6-5.2c-0.4-1.1-1-2-1.6-2.4C195.2,22.7,194.4,22.5,193.5,22.5z
		 M196.9,16.7h0.7c0,0.2,0,0.3,0,0.4c0,0.9-0.3,1.7-0.8,2.3c-0.5,0.6-1.2,0.9-1.9,0.9c-0.6,0-1.3-0.2-2.1-0.6
		c-0.8-0.4-1.4-0.6-1.7-0.6c-0.3,0-0.5,0.1-0.6,0.3c-0.2,0.2-0.3,0.5-0.4,0.9h-0.7c0-1.1,0.2-2,0.8-2.6c0.5-0.6,1.2-1,2-1
		c0.3,0,0.5,0,0.6,0.1c0.2,0.1,0.7,0.2,1.2,0.5c0.9,0.4,1.5,0.6,1.9,0.6c0.2,0,0.4-0.1,0.5-0.2C196.6,17.5,196.8,17.2,196.9,16.7z"
		/>
	<path d="M214.2,38.9v0.5h-9.2v-0.5h0.6c0.5,0,0.9-0.1,1.2-0.3c0.2-0.1,0.4-0.3,0.5-0.6c0.1-0.2,0.1-0.7,0.1-1.6V24.9
		c0-0.9,0-1.5-0.1-1.7s-0.3-0.4-0.6-0.6c-0.3-0.2-0.7-0.3-1.2-0.3h-0.6v-0.5h9.2v0.5h-0.6c-0.5,0-0.9,0.1-1.2,0.3
		c-0.2,0.1-0.4,0.3-0.5,0.6c-0.1,0.2-0.1,0.7-0.1,1.6v11.5c0,0.9,0,1.5,0.1,1.7c0.1,0.2,0.3,0.4,0.6,0.6c0.3,0.2,0.7,0.3,1.2,0.3
		H214.2z"/>
	<path d="M232.3,21.9v4.7h-0.5c-0.3-1.1-0.6-1.9-0.9-2.4s-0.8-0.9-1.4-1.1c-0.3-0.2-0.9-0.2-1.7-0.2h-1.3v13.5c0,0.9,0,1.5,0.1,1.7
		s0.3,0.4,0.6,0.6c0.3,0.2,0.7,0.3,1.2,0.3h0.6v0.5h-9.2v-0.5h0.6c0.5,0,0.9-0.1,1.2-0.3c0.2-0.1,0.4-0.3,0.5-0.6
		c0.1-0.2,0.1-0.7,0.1-1.6V22.9H221c-1.2,0-2,0.2-2.6,0.7c-0.7,0.7-1.2,1.7-1.4,3h-0.5v-4.7H232.3z"/>
</g>
<g>
	<path d="M95,48.6c1.8-0.1,3.2,0.4,4.3,1.5s1.6,2.4,1.6,4.1c0,1.4-0.4,2.6-1.2,3.7c-1.1,1.4-2.6,2.1-4.6,2.1c-2,0-3.5-0.7-4.6-2
		c-0.9-1.1-1.3-2.3-1.3-3.8c0-1.6,0.6-3,1.7-4.1S93.4,48.5,95,48.6z M95.1,49.1c-1,0-1.8,0.5-2.3,1.5c-0.4,0.8-0.6,2.1-0.6,3.6
		c0,1.9,0.3,3.3,1,4.2c0.5,0.6,1.1,0.9,1.9,0.9c0.6,0,1-0.1,1.4-0.4c0.5-0.3,0.8-0.9,1.1-1.7c0.3-0.8,0.4-1.8,0.4-3
		c0-1.5-0.1-2.5-0.4-3.3c-0.3-0.7-0.6-1.2-1-1.5C96.1,49.2,95.7,49.1,95.1,49.1z"/>
	<path d="M106.6,48.7v4.4c0.4-0.4,0.8-0.7,1.1-0.9c0.3-0.2,0.7-0.3,1.1-0.3c0.5,0,0.9,0.1,1.2,0.4c0.3,0.3,0.6,0.6,0.7,1
		c0.1,0.4,0.2,1,0.2,1.8v3c0,0.6,0.1,0.9,0.2,1.1c0.1,0.1,0.3,0.2,0.7,0.3v0.3h-3.8v-0.3c0.3,0,0.5-0.1,0.6-0.3
		c0.1-0.1,0.1-0.5,0.1-1v-3.4c0-0.6,0-1-0.1-1.2c0-0.2-0.1-0.3-0.2-0.4c-0.1-0.1-0.2-0.1-0.4-0.1c-0.2,0-0.4,0.1-0.6,0.2
		c-0.2,0.1-0.4,0.4-0.7,0.8v4.1c0,0.5,0,0.9,0.1,1c0.1,0.2,0.3,0.3,0.6,0.3v0.3h-3.8v-0.3c0.3,0,0.5-0.1,0.7-0.3
		c0.1-0.1,0.1-0.5,0.1-1v-7.7c0-0.6-0.1-0.9-0.2-1.1s-0.3-0.2-0.7-0.3v-0.3H106.6z"/>
	<path d="M121.6,52.1v5.9c0,0.6,0.1,0.9,0.2,1.1c0.1,0.1,0.3,0.2,0.7,0.3v0.3h-3.1v-1c-0.4,0.4-0.7,0.7-1.1,0.9
		c-0.4,0.2-0.8,0.3-1.2,0.3c-0.4,0-0.8-0.1-1.1-0.4c-0.3-0.3-0.6-0.6-0.7-0.9c-0.1-0.4-0.2-1-0.2-1.8v-3c0-0.6-0.1-0.9-0.2-1.1
		c-0.1-0.1-0.3-0.2-0.7-0.3v-0.3h3.1v5.2c0,0.5,0,0.9,0.1,1c0.1,0.2,0.1,0.3,0.2,0.4c0.1,0.1,0.2,0.1,0.4,0.1c0.2,0,0.4-0.1,0.5-0.2
		c0.2-0.1,0.5-0.4,0.8-0.9v-4.1c0-0.6-0.1-0.9-0.2-1.1s-0.3-0.2-0.7-0.3v-0.3H121.6z"/>
	<path d="M128,49.4v2.8h1.8v0.8H128v4.7c0,0.4,0,0.7,0.1,0.8c0,0.1,0.1,0.2,0.2,0.3c0.1,0.1,0.2,0.1,0.3,0.1c0.4,0,0.7-0.3,1-0.8
		l0.2,0.2c-0.4,1-1.1,1.6-2.1,1.6c-0.5,0-0.9-0.1-1.2-0.4c-0.3-0.3-0.5-0.6-0.6-0.9c-0.1-0.2-0.1-0.7-0.1-1.5v-4.1h-1v-0.3
		c0.7-0.5,1.3-1,1.7-1.5s0.9-1.1,1.3-1.8H128z"/>
	<path d="M139.3,52.1v5.9c0,0.6,0.1,0.9,0.2,1.1c0.1,0.1,0.3,0.2,0.7,0.3v0.3H137v-1c-0.4,0.4-0.7,0.7-1.1,0.9
		c-0.4,0.2-0.8,0.3-1.2,0.3c-0.4,0-0.8-0.1-1.1-0.4c-0.3-0.3-0.6-0.6-0.7-0.9c-0.1-0.4-0.2-1-0.2-1.8v-3c0-0.6-0.1-0.9-0.2-1.1
		c-0.1-0.1-0.3-0.2-0.7-0.3v-0.3h3.1v5.2c0,0.5,0,0.9,0.1,1c0.1,0.2,0.1,0.3,0.2,0.4c0.1,0.1,0.2,0.1,0.4,0.1c0.2,0,0.4-0.1,0.5-0.2
		c0.2-0.1,0.5-0.4,0.8-0.9v-4.1c0-0.6-0.1-0.9-0.2-1.1s-0.3-0.2-0.7-0.3v-0.3H139.3z"/>
	<path d="M153.1,51.9l0.1,2.6H153c-0.3-0.8-0.7-1.3-1-1.6c-0.4-0.3-0.7-0.4-1.1-0.4c-0.2,0-0.4,0.1-0.6,0.2s-0.2,0.3-0.2,0.5
		c0,0.1,0.1,0.3,0.2,0.4c0.2,0.2,0.7,0.6,1.5,1.1c0.8,0.5,1.3,1,1.6,1.4c0.3,0.4,0.4,0.8,0.4,1.3c0,0.4-0.1,0.8-0.3,1.2
		s-0.5,0.7-0.9,0.9c-0.4,0.2-0.8,0.3-1.3,0.3c-0.4,0-0.8-0.1-1.5-0.3c-0.2-0.1-0.3-0.1-0.3-0.1c-0.2,0-0.3,0.1-0.4,0.4h-0.3
		l-0.1-2.7h0.3c0.2,0.7,0.6,1.2,1,1.6c0.4,0.4,0.8,0.5,1.2,0.5c0.3,0,0.5-0.1,0.6-0.2c0.2-0.2,0.2-0.4,0.2-0.6
		c0-0.3-0.1-0.5-0.2-0.7c-0.2-0.2-0.5-0.5-1.1-0.9c-0.8-0.6-1.4-1-1.6-1.3c-0.4-0.4-0.5-0.9-0.5-1.5c0-0.6,0.2-1.1,0.6-1.6
		s1-0.7,1.7-0.7c0.4,0,0.8,0.1,1.2,0.3c0.1,0.1,0.3,0.1,0.4,0.1c0.1,0,0.2,0,0.2-0.1s0.2-0.2,0.3-0.3H153.1z"/>
	<path d="M159.8,51.9c0.7,0,1.3,0.2,1.8,0.5c0.6,0.3,1,0.8,1.3,1.5c0.3,0.6,0.4,1.3,0.4,2.1c0,1.1-0.3,2-0.8,2.7
		c-0.7,0.9-1.6,1.3-2.7,1.3c-1.1,0-2-0.4-2.6-1.2c-0.6-0.8-0.9-1.7-0.9-2.8c0-1.1,0.3-2,0.9-2.8C157.9,52.3,158.7,51.9,159.8,51.9z
		 M162,48.6h0.4c0,0.1,0,0.2,0,0.3c0,0.6-0.2,1.1-0.5,1.4c-0.3,0.4-0.7,0.5-1.2,0.5c-0.4,0-0.8-0.1-1.3-0.4
		c-0.5-0.3-0.9-0.4-1.1-0.4c-0.2,0-0.3,0.1-0.4,0.2c-0.1,0.1-0.2,0.3-0.2,0.6h-0.5c0-0.7,0.1-1.3,0.5-1.7s0.8-0.6,1.3-0.6
		c0.2,0,0.3,0,0.4,0c0.2,0,0.4,0.2,0.8,0.3c0.6,0.3,1,0.4,1.2,0.4c0.1,0,0.2,0,0.3-0.1C161.8,49.1,161.9,48.9,162,48.6z M159.9,52.5
		c-0.3,0-0.5,0.1-0.7,0.3s-0.3,0.6-0.4,1.2c-0.1,0.6-0.1,1.5-0.1,2.6c0,0.6,0,1.1,0.1,1.6c0.1,0.4,0.2,0.7,0.4,0.9
		c0.2,0.2,0.4,0.3,0.7,0.3c0.2,0,0.4-0.1,0.6-0.2c0.2-0.2,0.4-0.4,0.4-0.8c0.1-0.5,0.2-1.6,0.2-3.1c0-0.9-0.1-1.5-0.2-1.9
		c-0.1-0.3-0.3-0.6-0.5-0.8C160.3,52.5,160.1,52.5,159.9,52.5z"/>
	<path d="M169,52.1v6c0,0.5,0.1,0.9,0.2,1c0.1,0.1,0.4,0.2,0.7,0.3v0.3h-4.1v-0.3c0.3,0,0.6-0.1,0.7-0.3c0.1-0.1,0.2-0.5,0.2-1v-4.4
		c0-0.5-0.1-0.9-0.2-1c-0.1-0.1-0.4-0.2-0.7-0.3v-0.3H169z M167.9,48.5c0.4,0,0.6,0.1,0.9,0.4c0.2,0.2,0.4,0.5,0.4,0.9
		c0,0.3-0.1,0.6-0.4,0.9s-0.5,0.4-0.9,0.4c-0.3,0-0.6-0.1-0.9-0.4s-0.4-0.5-0.4-0.9c0-0.3,0.1-0.6,0.4-0.9S167.5,48.5,167.9,48.5z"
		/>
	<path d="M179.5,48.7v8.7c0,0.6,0,0.9,0,1c0,0.2,0.1,0.3,0.2,0.4s0.3,0.1,0.6,0.2v0.3l-3.2,0.6v-1.2c-0.4,0.5-0.7,0.8-1,0.9
		c-0.3,0.2-0.6,0.3-1,0.3c-1,0-1.7-0.4-2.3-1.3c-0.5-0.7-0.7-1.6-0.7-2.6c0-0.8,0.1-1.5,0.4-2.2c0.3-0.6,0.7-1.1,1.2-1.5
		c0.5-0.3,1-0.5,1.6-0.5c0.4,0,0.7,0.1,1,0.2c0.3,0.1,0.6,0.4,0.9,0.7v-2.3c0-0.6,0-0.9-0.1-1c-0.1-0.2-0.2-0.3-0.3-0.3
		c-0.1-0.1-0.4-0.1-0.7-0.1v-0.3H179.5z M177.2,53.9c-0.4-0.8-0.9-1.2-1.5-1.2c-0.2,0-0.4,0.1-0.5,0.2c-0.2,0.2-0.4,0.5-0.5,0.9
		c-0.1,0.4-0.2,1.1-0.2,1.9c0,1,0.1,1.7,0.2,2.1s0.3,0.8,0.6,1c0.1,0.1,0.3,0.2,0.5,0.2c0.5,0,0.9-0.4,1.3-1.1V53.9z"/>
	<path d="M190.2,52.1v5.9c0,0.6,0.1,0.9,0.2,1.1c0.1,0.1,0.3,0.2,0.7,0.3v0.3h-3.1v-1c-0.4,0.4-0.7,0.7-1.1,0.9
		c-0.4,0.2-0.8,0.3-1.2,0.3c-0.4,0-0.8-0.1-1.1-0.4c-0.3-0.3-0.6-0.6-0.7-0.9c-0.1-0.4-0.2-1-0.2-1.8v-3c0-0.6-0.1-0.9-0.2-1.1
		c-0.1-0.1-0.3-0.2-0.7-0.3v-0.3h3.1v5.2c0,0.5,0,0.9,0.1,1c0.1,0.2,0.1,0.3,0.2,0.4c0.1,0.1,0.2,0.1,0.4,0.1c0.2,0,0.4-0.1,0.5-0.2
		c0.2-0.1,0.5-0.4,0.8-0.9v-4.1c0-0.6-0.1-0.9-0.2-1.1s-0.3-0.2-0.7-0.3v-0.3H190.2z"/>
	<path d="M202.3,48.7V56l1.8-1.7c0.4-0.4,0.6-0.6,0.7-0.8s0.1-0.3,0.1-0.5s-0.1-0.3-0.2-0.4c-0.1-0.1-0.4-0.2-0.7-0.2v-0.3h3.4v0.3
		c-0.3,0-0.6,0.1-0.9,0.2c-0.2,0.1-0.7,0.6-1.4,1.2l-0.8,0.8l1.8,2.6c0.7,1.1,1.1,1.7,1.3,1.8c0.2,0.2,0.4,0.3,0.7,0.3v0.3h-3.9
		v-0.3c0.2,0,0.3,0,0.4-0.1c0.1-0.1,0.1-0.1,0.1-0.2c0-0.1-0.1-0.4-0.3-0.7l-1.5-2.2l-0.5,0.5v1.4c0,0.6,0.1,0.9,0.2,1.1
		c0.1,0.1,0.3,0.2,0.7,0.3v0.3h-3.9v-0.3c0.3,0,0.5-0.1,0.7-0.3c0.1-0.1,0.1-0.5,0.1-1v-7.7c0-0.6-0.1-0.9-0.2-1.1
		c-0.1-0.1-0.3-0.2-0.7-0.3v-0.3H202.3z"/>
	<path d="M213.5,51.9c0.7,0,1.3,0.2,1.8,0.5c0.6,0.3,1,0.8,1.3,1.5c0.3,0.6,0.4,1.3,0.4,2.1c0,1.1-0.3,2-0.8,2.7
		c-0.7,0.9-1.6,1.3-2.7,1.3c-1.1,0-2-0.4-2.6-1.2c-0.6-0.8-0.9-1.7-0.9-2.8c0-1.1,0.3-2,0.9-2.8C211.5,52.3,212.4,51.9,213.5,51.9z
		 M213.5,52.5c-0.3,0-0.5,0.1-0.7,0.3s-0.3,0.6-0.4,1.2c-0.1,0.6-0.1,1.5-0.1,2.6c0,0.6,0,1.1,0.1,1.6c0.1,0.4,0.2,0.7,0.4,0.9
		c0.2,0.2,0.4,0.3,0.7,0.3c0.2,0,0.4-0.1,0.6-0.2c0.2-0.2,0.4-0.4,0.4-0.8c0.1-0.5,0.2-1.6,0.2-3.1c0-0.9-0.1-1.5-0.2-1.9
		c-0.1-0.3-0.3-0.6-0.5-0.8C213.9,52.5,213.7,52.5,213.5,52.5z"/>
	<path d="M223.3,51.9c0.7,0,1.3,0.2,1.8,0.5c0.6,0.3,1,0.8,1.3,1.5c0.3,0.6,0.4,1.3,0.4,2.1c0,1.1-0.3,2-0.8,2.7
		c-0.7,0.9-1.6,1.3-2.7,1.3c-1.1,0-2-0.4-2.6-1.2c-0.6-0.8-0.9-1.7-0.9-2.8c0-1.1,0.3-2,0.9-2.8C221.3,52.3,222.2,51.9,223.3,51.9z
		 M223.3,52.5c-0.3,0-0.5,0.1-0.7,0.3s-0.3,0.6-0.4,1.2c-0.1,0.6-0.1,1.5-0.1,2.6c0,0.6,0,1.1,0.1,1.6c0.1,0.4,0.2,0.7,0.4,0.9
		c0.2,0.2,0.4,0.3,0.7,0.3c0.2,0,0.4-0.1,0.6-0.2c0.2-0.2,0.4-0.4,0.4-0.8c0.1-0.5,0.2-1.6,0.2-3.1c0-0.9-0.1-1.5-0.2-1.9
		c-0.1-0.3-0.3-0.6-0.5-0.8C223.7,52.5,223.5,52.5,223.3,52.5z"/>
	<path d="M232.4,48.7v9.4c0,0.5,0.1,0.9,0.2,1c0.1,0.1,0.4,0.2,0.7,0.3v0.3h-4.1v-0.3c0.3,0,0.6-0.1,0.7-0.3c0.1-0.1,0.2-0.5,0.2-1
		v-7.8c0-0.5-0.1-0.9-0.2-1c-0.1-0.1-0.4-0.2-0.7-0.3v-0.3H232.4z"/>
</g>
</svg>
