<svg width="188" height="50" viewBox="0 0 188 50" fill="none" xmlns="http://www.w3.org/2000/svg">
<path d="M66.0093 24.2368C66.0093 23.7727 65.9419 23.3498 65.8072 22.968C65.6799 22.5787 65.489 22.2456 65.2345 21.9687C64.9875 21.6842 64.6843 21.4671 64.325 21.3174C63.9657 21.1602 63.5578 21.0816 63.1011 21.0816C62.143 21.0816 61.3832 21.3623 60.8218 21.9238C60.2679 22.4777 59.9235 23.2487 59.7888 24.2368H66.0093ZM67.6261 29.5702C67.3791 29.8697 67.0834 30.1317 66.7391 30.3562C66.3948 30.5733 66.0242 30.7529 65.6275 30.8952C65.2383 31.0374 64.834 31.1422 64.4148 31.2096C63.9957 31.2844 63.5802 31.3218 63.1685 31.3218C62.3825 31.3218 61.6564 31.1909 60.9902 30.9289C60.3315 30.6594 59.7588 30.2701 59.2723 29.7611C58.7932 29.2446 58.4189 28.6083 58.1495 27.8523C57.88 27.0963 57.7452 26.2279 57.7452 25.2473C57.7452 24.4539 57.865 23.7128 58.1045 23.0241C58.3516 22.3355 58.7034 21.7404 59.16 21.2388C59.6166 20.7298 60.1743 20.3331 60.833 20.0486C61.4917 19.7567 62.2328 19.6107 63.0562 19.6107C63.7374 19.6107 64.3662 19.7268 64.9426 19.9588C65.5265 20.1834 66.028 20.5127 66.4472 20.9469C66.8738 21.3736 67.207 21.905 67.4465 22.5413C67.686 23.1701 67.8058 23.8887 67.8058 24.6972C67.8058 25.0115 67.7721 25.2211 67.7047 25.3259C67.6374 25.4307 67.5101 25.4831 67.323 25.4831H59.7214C59.7439 26.2017 59.8412 26.8268 60.0134 27.3583C60.193 27.8897 60.44 28.3351 60.7544 28.6944C61.0688 29.0462 61.4431 29.312 61.8773 29.4916C62.3114 29.6638 62.798 29.7499 63.3369 29.7499C63.8385 29.7499 64.2689 29.6937 64.6282 29.5815C64.995 29.4617 65.3094 29.3344 65.5714 29.1997C65.8334 29.065 66.0504 28.9414 66.2226 28.8292C66.4023 28.7094 66.5557 28.6495 66.683 28.6495C66.8476 28.6495 66.9749 28.7131 67.0647 28.8404L67.6261 29.5702Z" fill="#202124"/>
<path d="M76.2005 26.0445C75.2798 26.0745 74.4938 26.1493 73.8426 26.2691C73.1988 26.3814 72.6711 26.5311 72.2594 26.7182C71.8552 26.9054 71.5595 27.1262 71.3724 27.3807C71.1927 27.6352 71.1029 27.9197 71.1029 28.2341C71.1029 28.5335 71.1515 28.7917 71.2488 29.0088C71.3462 29.2259 71.4772 29.4056 71.6418 29.5478C71.814 29.6825 72.0124 29.7836 72.2369 29.8509C72.469 29.9108 72.716 29.9408 72.978 29.9408C73.3298 29.9408 73.6517 29.9071 73.9436 29.8397C74.2356 29.7649 74.5088 29.6601 74.7633 29.5253C75.0253 29.3906 75.2723 29.2296 75.5044 29.0425C75.7439 28.8554 75.976 28.642 76.2005 28.4025V26.0445ZM69.7443 21.396C70.373 20.7897 71.0505 20.3368 71.7766 20.0374C72.5027 19.738 73.3074 19.5883 74.1907 19.5883C74.8269 19.5883 75.3921 19.6931 75.8861 19.9027C76.3802 20.1123 76.7956 20.4042 77.1325 20.7785C77.4693 21.1528 77.7238 21.6056 77.896 22.1371C78.0682 22.6686 78.1543 23.2524 78.1543 23.8887V31.1647H77.2672C77.0726 31.1647 76.9229 31.1347 76.8181 31.0748C76.7133 31.0075 76.6309 30.8802 76.5711 30.6931L76.3465 29.6151C76.0471 29.8921 75.7551 30.1391 75.4707 30.3562C75.1862 30.5658 74.8868 30.7455 74.5724 30.8952C74.258 31.0374 73.9212 31.1459 73.5619 31.2208C73.2101 31.3031 72.8171 31.3443 72.3829 31.3443C71.9413 31.3443 71.5258 31.2844 71.1366 31.1647C70.7473 31.0374 70.4067 30.8503 70.1148 30.6032C69.8303 30.3562 69.602 30.0456 69.4299 29.6713C69.2652 29.2895 69.1828 28.8404 69.1828 28.3239C69.1828 27.8748 69.3064 27.4443 69.5534 27.0326C69.8004 26.6134 70.2009 26.2429 70.7548 25.921C71.3087 25.5992 72.0311 25.3372 72.9219 25.1351C73.8126 24.9255 74.9055 24.8057 76.2005 24.7758V23.8887C76.2005 23.0054 76.0096 22.3392 75.6279 21.8901C75.2461 21.4335 74.6884 21.2052 73.9549 21.2052C73.4608 21.2052 73.0454 21.2688 72.7085 21.396C72.3792 21.5158 72.091 21.6543 71.8439 21.8115C71.6044 21.9612 71.3948 22.0997 71.2152 22.2269C71.043 22.3467 70.8708 22.4066 70.6987 22.4066C70.5639 22.4066 70.4479 22.3729 70.3506 22.3055C70.2533 22.2307 70.1709 22.1408 70.1036 22.036L69.7443 21.396Z" fill="#202124"/>
<path d="M87.5988 21.6655C87.509 21.8302 87.3705 21.9125 87.1834 21.9125C87.0711 21.9125 86.9438 21.8714 86.8016 21.789C86.6594 21.7067 86.4835 21.6169 86.2739 21.5195C86.0718 21.4147 85.8285 21.3212 85.5441 21.2388C85.2596 21.149 84.9228 21.1041 84.5335 21.1041C84.1967 21.1041 83.8935 21.149 83.624 21.2388C83.3545 21.3212 83.1225 21.4372 82.9279 21.5869C82.7407 21.7366 82.5948 21.9125 82.49 22.1146C82.3926 22.3093 82.344 22.5226 82.344 22.7547C82.344 23.0466 82.4263 23.2899 82.591 23.4845C82.7632 23.6791 82.9877 23.8475 83.2647 23.9898C83.5417 24.132 83.8561 24.2592 84.2079 24.3715C84.5597 24.4763 84.919 24.5924 85.2858 24.7196C85.6601 24.8394 86.0231 24.9741 86.375 25.1238C86.7268 25.2735 87.0412 25.4607 87.3181 25.6852C87.5951 25.9098 87.8159 26.1868 87.9806 26.5161C88.1528 26.838 88.2388 27.2273 88.2388 27.6839C88.2388 28.2079 88.1453 28.6944 87.9581 29.1436C87.771 29.5852 87.494 29.9707 87.1272 30.3001C86.7605 30.622 86.3113 30.8765 85.7799 31.0636C85.2484 31.2507 84.6346 31.3443 83.9384 31.3443C83.1449 31.3443 82.4263 31.2171 81.7826 30.9625C81.1388 30.7005 80.5924 30.3674 80.1432 29.9632L80.6148 29.1997C80.6747 29.1024 80.7458 29.0275 80.8282 28.9751C80.9105 28.9227 81.0153 28.8965 81.1426 28.8965C81.2773 28.8965 81.4195 28.9489 81.5692 29.0537C81.7189 29.1585 81.8986 29.2746 82.1082 29.4018C82.3253 29.5291 82.5873 29.6451 82.8942 29.7499C83.2011 29.8547 83.5828 29.9071 84.0395 29.9071C84.4287 29.9071 84.7693 29.8584 85.0612 29.7611C85.3532 29.6563 85.5965 29.5178 85.7911 29.3457C85.9857 29.1735 86.1279 28.9751 86.2178 28.7506C86.3151 28.526 86.3637 28.2865 86.3637 28.032C86.3637 27.7176 86.2776 27.4593 86.1055 27.2572C85.9408 27.0476 85.72 26.8717 85.443 26.7295C85.166 26.5798 84.8479 26.4525 84.4886 26.3477C84.1368 26.2354 83.7737 26.1194 83.3994 25.9996C83.0327 25.8799 82.6696 25.7451 82.3103 25.5954C81.9585 25.4382 81.6441 25.2436 81.3671 25.0115C81.0902 24.7795 80.8656 24.495 80.6934 24.1582C80.5287 23.8139 80.4464 23.3984 80.4464 22.9119C80.4464 22.4777 80.5362 22.0622 80.7159 21.6655C80.8955 21.2613 81.1575 20.9095 81.5019 20.6101C81.8462 20.3031 82.2691 20.0599 82.7707 19.8802C83.2722 19.7006 83.8448 19.6107 84.4886 19.6107C85.2371 19.6107 85.9071 19.7305 86.4985 19.97C87.0973 20.2021 87.6138 20.524 88.048 20.9357L87.5988 21.6655Z" fill="#202124"/>
<path d="M100.081 19.7904L93.7369 34.5219C93.6695 34.6716 93.5834 34.7914 93.4786 34.8812C93.3813 34.971 93.2278 35.016 93.0182 35.016H91.5361L93.6133 30.5022L88.9199 19.7904H90.6491C90.8212 19.7904 90.956 19.8353 91.0533 19.9251C91.1581 20.0075 91.2292 20.101 91.2666 20.2058L94.3095 27.3695C94.4293 27.6839 94.5303 28.0132 94.6127 28.3576C94.7175 28.0058 94.8297 27.6727 94.9495 27.3583L97.9025 20.2058C97.9475 20.0861 98.0223 19.9888 98.1271 19.9139C98.2394 19.8316 98.3629 19.7904 98.4977 19.7904H100.081Z" fill="#202124"/>
<path d="M102.363 31.1647V21.4971H99.3459C99.1887 21.4597 99.3546 21.3169 99.2498 21.242C99.1525 21.1597 99.2498 20.9843 99.2498 20.8346V19.7904H102.363V18.9146C102.363 18.2633 102.453 17.6869 102.632 17.1854C102.82 16.6764 103.082 16.2497 103.418 15.9054C103.763 15.5536 104.174 15.2878 104.654 15.1082C105.133 14.9285 105.672 14.8387 106.27 14.8387C106.779 14.8387 107.247 14.9136 107.674 15.0633L107.629 16.0626C107.614 16.2422 107.513 16.3396 107.326 16.3545C107.146 16.3695 106.903 16.377 106.596 16.377C106.252 16.377 105.937 16.4219 105.653 16.5117C105.376 16.6015 105.136 16.7475 104.934 16.9496C104.732 17.1517 104.575 17.4175 104.463 17.7468C104.358 18.0762 104.305 18.4842 104.305 18.9707V20.015H107.584V21.4634H104.373V31.1647H102.363Z" fill="#202124"/>
<path d="M116.51 24.2368C116.51 23.7727 116.443 23.3498 116.308 22.968C116.181 22.5787 115.99 22.2456 115.736 21.9687C115.489 21.6842 115.185 21.4671 114.826 21.3174C114.467 21.1602 114.059 21.0816 113.602 21.0816C112.644 21.0816 111.884 21.3623 111.323 21.9238C110.769 22.4777 110.425 23.2487 110.29 24.2368H116.51ZM118.127 29.5702C117.88 29.8697 117.584 30.1317 117.24 30.3562C116.896 30.5733 116.525 30.7529 116.129 30.8952C115.739 31.0374 115.335 31.1422 114.916 31.2096C114.497 31.2844 114.081 31.3218 113.67 31.3218C112.884 31.3218 112.157 31.1909 111.491 30.9289C110.833 30.6594 110.26 30.2701 109.773 29.7611C109.294 29.2446 108.92 28.6083 108.65 27.8523C108.381 27.0963 108.246 26.2279 108.246 25.2473C108.246 24.4539 108.366 23.7128 108.606 23.0241C108.853 22.3355 109.204 21.7404 109.661 21.2388C110.118 20.7298 110.675 20.3331 111.334 20.0486C111.993 19.7567 112.734 19.6107 113.557 19.6107C114.238 19.6107 114.867 19.7268 115.444 19.9588C116.027 20.1834 116.529 20.5127 116.948 20.9469C117.375 21.3736 117.708 21.905 117.948 22.5413C118.187 23.1701 118.307 23.8887 118.307 24.6972C118.307 25.0115 118.273 25.2211 118.206 25.3259C118.138 25.4307 118.011 25.4831 117.824 25.4831H110.222C110.245 26.2017 110.342 26.8268 110.514 27.3583C110.694 27.8897 110.941 28.3351 111.255 28.6944C111.57 29.0462 111.944 29.312 112.378 29.4916C112.812 29.6638 113.299 29.7499 113.838 29.7499C114.339 29.7499 114.77 29.6937 115.129 29.5815C115.496 29.4617 115.81 29.3344 116.072 29.1997C116.334 29.065 116.551 28.9414 116.724 28.8292C116.903 28.7094 117.057 28.6495 117.184 28.6495C117.349 28.6495 117.476 28.7131 117.566 28.8404L118.127 29.5702Z" fill="#202124"/>
<path d="M128.15 24.2368C128.15 23.7727 128.083 23.3498 127.948 22.968C127.821 22.5787 127.63 22.2456 127.375 21.9687C127.128 21.6842 126.825 21.4671 126.466 21.3174C126.106 21.1602 125.698 21.0816 125.242 21.0816C124.284 21.0816 123.524 21.3623 122.963 21.9238C122.409 22.4777 122.064 23.2487 121.93 24.2368H128.15ZM129.767 29.5702C129.52 29.8697 129.224 30.1317 128.88 30.3562C128.536 30.5733 128.165 30.7529 127.768 30.8952C127.379 31.0374 126.975 31.1422 126.556 31.2096C126.136 31.2844 125.721 31.3218 125.309 31.3218C124.523 31.3218 123.797 31.1909 123.131 30.9289C122.472 30.6594 121.9 30.2701 121.413 29.7611C120.934 29.2446 120.56 28.6083 120.29 27.8523C120.021 27.0963 119.886 26.2279 119.886 25.2473C119.886 24.4539 120.006 23.7128 120.245 23.0241C120.492 22.3355 120.844 21.7404 121.301 21.2388C121.757 20.7298 122.315 20.3331 122.974 20.0486C123.632 19.7567 124.374 19.6107 125.197 19.6107C125.878 19.6107 126.507 19.7268 127.083 19.9588C127.667 20.1834 128.169 20.5127 128.588 20.9469C129.015 21.3736 129.348 21.905 129.587 22.5413C129.827 23.1701 129.947 23.8887 129.947 24.6972C129.947 25.0115 129.913 25.2211 129.845 25.3259C129.778 25.4307 129.651 25.4831 129.464 25.4831H121.862C121.885 26.2017 121.982 26.8268 122.154 27.3583C122.334 27.8897 122.581 28.3351 122.895 28.6944C123.21 29.0462 123.584 29.312 124.018 29.4916C124.452 29.6638 124.939 29.7499 125.478 29.7499C125.979 29.7499 126.41 29.6937 126.769 29.5815C127.136 29.4617 127.45 29.3344 127.712 29.1997C127.974 29.065 128.191 28.9414 128.363 28.8292C128.543 28.7094 128.696 28.6495 128.824 28.6495C128.988 28.6495 129.116 28.7131 129.205 28.8404L129.767 29.5702Z" fill="#202124"/>
<path d="M139.588 22.4964C139.213 21.9949 138.809 21.6468 138.375 21.4522C137.941 21.2501 137.454 21.149 136.915 21.149C135.86 21.149 135.048 21.527 134.479 22.2831C133.91 23.0391 133.625 24.117 133.625 25.5168C133.625 26.2579 133.689 26.8942 133.816 27.4256C133.944 27.9496 134.131 28.3838 134.378 28.7281C134.625 29.065 134.928 29.312 135.287 29.4692C135.646 29.6264 136.054 29.705 136.511 29.705C137.17 29.705 137.742 29.5553 138.229 29.2558C138.723 28.9564 139.176 28.5335 139.588 27.987V22.4964ZM141.586 14.6254V31.1647H140.396C140.112 31.1647 139.932 31.0262 139.857 30.7492L139.677 29.3681C139.191 29.952 138.637 30.4236 138.016 30.7829C137.394 31.1422 136.676 31.3218 135.86 31.3218C135.209 31.3218 134.617 31.1983 134.086 30.9513C133.554 30.6968 133.101 30.3263 132.727 29.8397C132.353 29.3532 132.065 28.7468 131.863 28.0207C131.66 27.2946 131.559 26.46 131.559 25.5168C131.559 24.6784 131.672 23.8999 131.896 23.1813C132.121 22.4552 132.443 21.8264 132.862 21.295C133.281 20.7635 133.794 20.3481 134.4 20.0486C135.014 19.7417 135.703 19.5883 136.466 19.5883C137.162 19.5883 137.757 19.708 138.251 19.9476C138.753 20.1796 139.198 20.5053 139.588 20.9244V14.6254H141.586Z" fill="#202124"/>
<path d="M146.528 28.4249C146.895 28.919 147.296 29.2671 147.73 29.4692C148.171 29.6713 148.654 29.7723 149.178 29.7723C150.249 29.7723 151.068 29.3943 151.637 28.6383C152.206 27.8822 152.491 26.7557 152.491 25.2586C152.491 23.8663 152.236 22.8445 151.727 22.1932C151.225 21.5345 150.507 21.2052 149.571 21.2052C148.92 21.2052 148.351 21.3549 147.864 21.6543C147.385 21.9537 146.94 22.3766 146.528 22.9231V28.4249ZM146.528 21.4297C147.007 20.8758 147.546 20.4341 148.145 20.1048C148.751 19.7754 149.448 19.6107 150.234 19.6107C150.9 19.6107 151.499 19.738 152.03 19.9925C152.569 20.247 153.026 20.6175 153.4 21.1041C153.774 21.5832 154.059 22.167 154.253 22.8557C154.455 23.5444 154.557 24.3191 154.557 25.18C154.557 26.1007 154.444 26.9391 154.22 27.6951C153.995 28.4511 153.669 29.0986 153.243 29.6376C152.824 30.1691 152.311 30.5845 151.705 30.8839C151.098 31.1759 150.417 31.3218 149.661 31.3218C148.912 31.3218 148.28 31.1834 147.763 30.9064C147.254 30.622 146.809 30.2215 146.427 29.705L146.326 30.738C146.266 31.0224 146.094 31.1647 145.81 31.1647H144.518V14.6254H146.528V21.4297Z" fill="#202124"/>
<path d="M163.024 26.0445C162.104 26.0745 161.318 26.1493 160.666 26.2691C160.023 26.3814 159.495 26.5311 159.083 26.7182C158.679 26.9054 158.383 27.1262 158.196 27.3807C158.016 27.6352 157.927 27.9197 157.927 28.2341C157.927 28.5335 157.975 28.7917 158.073 29.0088C158.17 29.2259 158.301 29.4056 158.466 29.5478C158.638 29.6825 158.836 29.7836 159.061 29.8509C159.293 29.9108 159.54 29.9408 159.802 29.9408C160.154 29.9408 160.475 29.9071 160.767 29.8397C161.059 29.7649 161.333 29.6601 161.587 29.5253C161.849 29.3906 162.096 29.2296 162.328 29.0425C162.568 28.8554 162.8 28.642 163.024 28.4025V26.0445ZM156.568 21.396C157.197 20.7897 157.874 20.3368 158.6 20.0374C159.326 19.738 160.131 19.5883 161.014 19.5883C161.651 19.5883 162.216 19.6931 162.71 19.9027C163.204 20.1123 163.619 20.4042 163.956 20.7785C164.293 21.1528 164.548 21.6056 164.72 22.1371C164.892 22.6686 164.978 23.2524 164.978 23.8887V31.1647H164.091C163.896 31.1647 163.747 31.1347 163.642 31.0748C163.537 31.0075 163.455 30.8802 163.395 30.6931L163.17 29.6151C162.871 29.8921 162.579 30.1391 162.294 30.3562C162.01 30.5658 161.711 30.7455 161.396 30.8952C161.082 31.0374 160.745 31.1459 160.386 31.2208C160.034 31.3031 159.641 31.3443 159.207 31.3443C158.765 31.3443 158.35 31.2844 157.96 31.1647C157.571 31.0374 157.23 30.8503 156.938 30.6032C156.654 30.3562 156.426 30.0456 156.254 29.6713C156.089 29.2895 156.007 28.8404 156.007 28.3239C156.007 27.8748 156.13 27.4443 156.377 27.0326C156.624 26.6134 157.025 26.2429 157.579 25.921C158.132 25.5992 158.855 25.3372 159.746 25.1351C160.636 24.9255 161.729 24.8057 163.024 24.7758V23.8887C163.024 23.0054 162.833 22.3392 162.452 21.8901C162.07 21.4335 161.512 21.2052 160.779 21.2052C160.285 21.2052 159.869 21.2688 159.532 21.396C159.203 21.5158 158.915 21.6543 158.668 21.8115C158.428 21.9612 158.219 22.0997 158.039 22.2269C157.867 22.3467 157.695 22.4066 157.522 22.4066C157.388 22.4066 157.272 22.3729 157.174 22.3055C157.077 22.2307 156.995 22.1408 156.927 22.036L156.568 21.396Z" fill="#202124"/>
<path d="M175.714 21.8115C175.654 21.8938 175.594 21.9574 175.534 22.0024C175.474 22.0473 175.392 22.0697 175.287 22.0697C175.175 22.0697 175.051 22.0248 174.917 21.935C174.782 21.8377 174.613 21.7329 174.411 21.6206C174.217 21.5083 173.973 21.4073 173.681 21.3174C173.397 21.2201 173.045 21.1715 172.626 21.1715C172.065 21.1715 171.571 21.2725 171.144 21.4746C170.717 21.6693 170.358 21.9537 170.066 22.328C169.782 22.7023 169.564 23.1551 169.415 23.6866C169.272 24.2181 169.201 24.8132 169.201 25.4719C169.201 26.1606 169.28 26.7744 169.437 27.3133C169.594 27.8448 169.815 28.294 170.1 28.6607C170.392 29.02 170.74 29.297 171.144 29.4916C171.556 29.6788 172.016 29.7723 172.525 29.7723C173.012 29.7723 173.412 29.7162 173.726 29.6039C174.041 29.4841 174.299 29.3532 174.501 29.2109C174.711 29.0687 174.883 28.9414 175.018 28.8292C175.16 28.7094 175.298 28.6495 175.433 28.6495C175.598 28.6495 175.725 28.7131 175.815 28.8404L176.376 29.5702C176.129 29.8771 175.849 30.1391 175.534 30.3562C175.22 30.5733 174.879 30.7567 174.512 30.9064C174.153 31.0486 173.775 31.1534 173.378 31.2208C172.982 31.2882 172.577 31.3218 172.166 31.3218C171.455 31.3218 170.792 31.1909 170.178 30.9289C169.572 30.6669 169.044 30.2888 168.595 29.7948C168.146 29.2933 167.794 28.6795 167.54 27.9534C167.285 27.2273 167.158 26.4001 167.158 25.4719C167.158 24.626 167.274 23.8438 167.506 23.1252C167.745 22.4066 168.09 21.789 168.539 21.2725C168.996 20.7485 169.553 20.3406 170.212 20.0486C170.878 19.7567 171.642 19.6107 172.502 19.6107C173.303 19.6107 174.007 19.7417 174.613 20.0037C175.227 20.2582 175.77 20.6213 176.242 21.0929L175.714 21.8115Z" fill="#202124"/>
<path d="M180.307 14.6254V24.3603H180.824C180.973 24.3603 181.097 24.3416 181.194 24.3042C181.299 24.2592 181.407 24.1732 181.52 24.0459L185.113 20.1946C185.218 20.0673 185.326 19.97 185.438 19.9027C185.558 19.8278 185.715 19.7904 185.91 19.7904H187.718L183.53 24.248C183.327 24.5025 183.11 24.7009 182.878 24.8431C183.013 24.9329 183.133 25.0377 183.238 25.1575C183.35 25.2698 183.455 25.4008 183.552 25.5505L187.998 31.1647H186.213C186.041 31.1647 185.891 31.1385 185.764 31.0861C185.644 31.0262 185.539 30.9214 185.45 30.7717L181.711 26.1119C181.598 25.9547 181.486 25.8537 181.374 25.8088C181.269 25.7564 181.104 25.7302 180.88 25.7302H180.307V31.1647H178.297V14.6254H180.307Z" fill="#202124"/>
<path d="M49.1832 23.0413C49.0567 22.8641 48.9301 22.687 48.7783 22.5351L46.1211 19.878L27.1668 0.948981C25.9015 -0.316327 23.8264 -0.316327 22.5611 0.948981L6.18803 17.2968C5.98558 17.4992 5.98558 17.8029 6.18803 18.0053C6.21334 18.0306 6.23864 18.0559 6.28926 18.0812C9.60436 20.131 14.0076 19.7262 16.8925 16.8412L23.9276 9.80614C24.4591 9.27471 25.3195 9.27471 25.8509 9.80614L41.0093 24.9645L45.0836 29.0388C45.615 29.5196 46.3995 29.4943 46.9056 29.0388L48.1963 27.7482L48.8036 27.1409C49.0314 26.9131 49.2338 26.6347 49.3856 26.3564C49.8918 25.3188 49.8412 24.0282 49.1832 23.0413Z" fill="#2ADD9B"/>
<path d="M41.8439 29.6717L39.0602 26.888L25.7491 13.577C25.243 13.1215 24.4585 13.1215 23.9524 13.577L18.7899 18.7647C14.9687 22.586 9.04707 23.0921 4.66911 20.2578C4.16298 19.9288 3.50502 19.9794 3.04951 20.4096L0.949103 22.5101C-0.316205 23.7754 -0.316205 25.8505 0.949103 27.1158L19.8781 46.0448L22.5353 48.7019C22.6618 48.8285 22.8136 48.955 22.9655 49.0562C22.9908 49.0815 23.0161 49.0815 23.0414 49.1068C24.0283 49.7648 25.3189 49.8154 26.3565 49.2587C26.6349 49.1068 26.9132 48.9044 27.141 48.6766L27.7483 48.0693L29.0389 46.7787C29.5198 46.2725 29.5198 45.4627 29.0389 44.9566L24.9646 40.8823L16.8414 32.7591C16.3099 32.2276 16.3099 31.3672 16.8414 30.8358C17.3728 30.3044 18.2332 30.3044 18.7646 30.8358L29.6716 41.7427L30.9622 43.0334C31.4936 43.5142 32.2781 43.4889 32.7842 43.0334L34.0749 41.7427L34.7834 41.0342L36.074 39.7436C36.5549 39.2374 36.5549 38.4276 36.074 37.9215L34.7834 36.6309L31.9998 33.8472L23.9018 25.7999C23.3704 25.2684 23.3704 24.408 23.9018 23.8766C24.4332 23.3452 25.2936 23.3452 25.8251 23.8766L36.732 34.7835L38.0226 36.0742C38.5541 36.555 39.3385 36.5297 39.8447 36.0742L41.1353 34.7835L41.8439 34.075L43.1345 32.7844C43.6153 32.2782 43.6153 31.4684 43.1345 30.9623L41.8439 29.6717Z" fill="url(#paint0_linear_962_2749)"/>
<defs>
<linearGradient id="paint0_linear_962_2749" x1="0.00012207" y1="13.2354" x2="35.8375" y2="56.0509" gradientUnits="userSpaceOnUse">
<stop stop-color="#7DFD77"/>
<stop offset="1" stop-color="#30FCB1"/>
</linearGradient>
</defs>
</svg>
